<svg width="170px" height="48px" viewBox="0 0 170 48" xmlns="http://www.w3.org/2000/svg">
    <defs>
        <filter id="filter-1">
            <feColorMatrix in="SourceGraphic" type="matrix" values="0 0 0 0 0.000000 0 0 0 0 0.000000 0 0 0 0 0.000000 0 0 0 1.000000 0"></feColorMatrix>
        </filter>
        <filter id="filter-2">
            <feColorMatrix in="SourceGraphic" type="matrix" values="0 0 0 0 0.929412 0 0 0 0 0.000000 0 0 0 0 0.027451 0 0 0 1.000000 0"></feColorMatrix>
        </filter>
        <filter id="filter-3">
            <feColorMatrix in="SourceGraphic" type="matrix" values="0 0 0 0 0.000000 0 0 0 0 0.000000 0 0 0 0 0.000000 0 0 0 1.000000 0"></feColorMatrix>
        </filter>
    </defs>
    <g id="Branding/Bosch-RmS/Horizontal" stroke="none" stroke-width="1" fill="none" fill-rule="evenodd">
        <g id="Bosch-+-RmS-horizontal" transform="translate(16.000000, 12.000000)">
            <g filter="url(#filter-1)" id="rms">
                <g transform="translate(0.000000, 3.000000)">
                    <path d="M6.90675556,1.46695652 C10.2396667,1.46695652 12.2443556,3.1226087 12.2443556,5.86782609 C12.2892306,6.82367958 11.9882013,7.76418314 11.3949111,8.52173913 C10.8728889,9.13043478 10.3694,9.43478261 9.30373333,9.73913043 C10.7864,10.1682609 11.4165333,10.9565217 11.8088222,12.81 C12.3740889,15.1930435 12.7015111,16.246087 13.0721778,16.7178261 L13.0721778,16.8030435 L9.49833333,16.8030435 C9.0628,16.03 8.757,15.0652174 8.32146667,13.1113043 C7.97242222,11.5652174 7.29904444,10.9565217 5.86888889,10.9565217 L3.49353333,10.9565217 L3.49353333,16.8182609 L0.0648666667,16.8182609 L0.0648666667,1.46695652 L6.90675556,1.46695652 Z M6.38164444,8.40304348 C7.97242222,8.40304348 8.85275556,7.65130435 8.85275556,6.25434783 C8.85275556,4.8573913 8.0898,4.15130435 6.62875556,4.15130435 L3.50588889,4.15130435 L3.50588889,8.41217391 L6.38164444,8.40304348 Z" fill="#000000" fill-rule="nonzero"></path>
                    <path d="M25.6377778,14.4565217 C24.7111111,16.1730435 23.3272889,17.0556522 20.6276,17.0556522 C17.1186222,17.0556522 14.7216444,14.7152174 14.7216444,11.3004348 C14.7216444,7.77913043 17.097,5.31086957 20.4731556,5.31086957 C23.8493111,5.31086957 25.8107556,7.50217391 25.8107556,11.1513043 L25.8107556,12.0308696 L18.0885333,12.0308696 C18.1966444,13.7473913 19.2437778,14.63 20.7913111,14.63 C21.7179778,14.63 22.6662667,14.2434783 23.0338444,13.4704348 L25.6377778,14.4565217 Z M22.5488889,10.0434783 C22.3759111,8.43347826 21.7643111,7.74565217 20.4360889,7.74565217 C19.1078667,7.74565217 18.4314,8.45478261 18.1256,10.0434783 L22.5488889,10.0434783 Z" fill="#000000" fill-rule="nonzero"></path>
                    <path d="M28.7853556,5.59086957 L28.7853556,4.34608696 C28.7853556,1.81086957 30.2031556,0.374347826 32.7082444,0.374347826 C33.6321008,0.348937577 34.5427699,0.594709964 35.3245333,1.08043478 L34.4750889,3.37826087 C34.1299505,3.16113398 33.7293312,3.04503701 33.3198444,3.04347826 C32.5785111,3.04347826 32.1213556,3.56086957 32.1213556,4.39782609 L32.1213556,5.61521739 L34.4503778,5.61521739 L34.4503778,8.16869565 L32.1244444,8.16869565 L32.1244444,16.8426087 L28.7884444,16.8426087 L28.7884444,8.14434783 L27.2192889,8.14434783 L27.2192889,5.59086957 L28.7853556,5.59086957 Z" fill="#000000" fill-rule="nonzero"></path>
                    <path d="M40.6621333,2.09086957 C40.6532581,2.58732166 40.4432455,3.05965824 40.0788775,3.40266266 C39.7145096,3.74566709 39.2260515,3.93084858 38.7223111,3.91695652 C37.7113529,3.87042076 36.9252187,3.03340878 36.9563445,2.03669818 C36.9874702,1.03998759 37.8243449,0.252180365 38.8362944,0.266973087 C39.8482439,0.281765809 40.6610307,1.09368786 40.6621333,2.09086957 L40.6621333,2.09086957 Z M40.4026667,5.59086957 L40.4026667,16.8182609 L37.0666667,16.8182609 L37.0666667,5.59086957 L40.4026667,5.59086957 Z" fill="#000000" fill-rule="nonzero"></path>
                    <path d="M47.0901111,5.59086957 L47.0901111,7.35 C47.7493516,6.03774522 49.1365645,5.23654769 50.6207111,5.31086957 C52.9095778,5.31086957 54.2161778,6.85695652 54.2161778,9.57173913 L54.2161778,16.8273913 L50.8832667,16.8273913 L50.8832667,9.99173913 C50.8832667,8.53086957 50.3396222,7.86130435 49.1627556,7.86130435 C47.8530667,7.86130435 47.0901111,8.71956522 47.0901111,10.1986957 L47.0901111,16.8121739 L43.7572,16.8121739 L43.7572,5.59086957 L47.0901111,5.59086957 Z" fill="#000000" fill-rule="nonzero"></path>
                    <path d="M67.5972444,14.4565217 C66.6705778,16.1730435 65.2898444,17.0556522 62.5870667,17.0556522 C59.0780889,17.0556522 56.6811111,14.7152174 56.6811111,11.3004348 C56.6811111,7.77913043 59.0564667,5.31086957 62.4326222,5.31086957 C65.8087778,5.31086957 67.7733111,7.50217391 67.7733111,11.1513043 L67.7733111,12.0308696 L60.0510889,12.0308696 C60.1592,13.7473913 61.2063333,14.63 62.7538667,14.63 C63.6805333,14.63 64.6288222,14.2434783 64.9994889,13.4704348 L67.5972444,14.4565217 Z M64.5268889,10.0434783 C64.3508222,8.43347826 63.7392222,7.74565217 62.411,7.74565217 C61.0827778,7.74565217 60.4063111,8.45478261 60.1005111,10.0434783 L64.5268889,10.0434783 Z" fill="#000000" fill-rule="nonzero"></path>
                    <path d="M72.6753778,7.30434783 C73.2651441,6.09881522 74.5210333,5.34943862 75.8785556,5.39304348 C77.423,5.39304348 78.4299778,6.05956522 79.0601111,7.49913043 C79.8879333,6.10217391 81.0864222,5.39304348 82.6772,5.39304348 C84.9660667,5.39304348 86.2726667,7.02434783 86.2726667,9.86086957 L86.2726667,16.8152174 L84.4656667,16.8152174 L84.4656667,9.73913043 C84.4656667,7.80652174 83.7892,6.94826087 82.3034444,6.94826087 C80.6045556,6.94826087 79.4709333,8.16565217 79.4709333,9.95521739 L79.4709333,16.8243478 L77.6639333,16.8243478 L77.6639333,9.73913043 C77.6639333,7.80652174 76.9874667,6.94826087 75.5017111,6.94826087 C73.8028222,6.94826087 72.6692,8.16565217 72.6692,9.95521739 L72.6692,16.8243478 L70.8622,16.8243478 L70.8622,5.59086957 L72.6692,5.59086957 L72.6753778,7.30434783 Z" fill="#000000" fill-rule="nonzero"></path>
                    <path d="M93.7076222,18.5804348 C93.1392667,20.1234783 92.2033333,20.853913 90.7639111,20.853913 C89.9836963,20.874916 89.2182447,20.6417029 88.5862444,20.1904348 L89.2410889,18.9 C89.6525593,19.2119757 90.1582466,19.3791316 90.6774222,19.3747826 C91.462,19.3747826 92.0272667,18.9 92.2898222,18.0417391 L92.7037333,16.6904348 L88.4318,5.59086957 L90.3932444,5.59086957 L93.5933333,14.133913 L96.5370444,5.59086957 L98.4305333,5.59086957 L93.7076222,18.5804348 Z" fill="#000000" fill-rule="nonzero"></path>
                    <path d="M109.655556,4.77521739 C108.8926,3.1226087 107.867089,2.7573913 105.930356,2.7573913 C103.947289,2.7573913 102.7488,3.67043478 102.7488,5.22565217 C102.692962,6.00244 103.112059,6.73734613 103.814467,7.09434783 C104.432244,7.43521739 104.883222,7.5873913 106.517244,7.9526087 C108.478689,8.38173913 109.525822,8.78956522 110.353644,9.43173913 C111.301552,10.1994142 111.832531,11.3582707 111.789978,12.5665217 C111.789978,15.2721739 109.655556,17.0130435 106.322644,17.0130435 C103.378933,17.0130435 101.287756,15.9386957 100.438311,13.5556522 L102.050711,12.9104348 C102.687022,14.8643478 104.095556,15.5217391 106.325733,15.5217391 C108.555911,15.5217391 110.0324,14.4047826 110.0324,12.6030435 C110.063032,11.9196093 109.783421,11.2581861 109.269444,10.7982609 C108.651667,10.283913 108.006089,10.0465217 105.803711,9.51086957 C104.018333,9.08173913 103.079311,8.71652174 102.297822,8.13521739 C101.427856,7.4691577 100.939656,6.42883222 100.988133,5.34434783 C100.988133,2.83347826 102.884711,1.26608696 105.930356,1.26608696 C108.521933,1.26608696 110.1992,1.92956522 111.159844,4.00521739 L109.655556,4.77521739 Z" fill="#000000" fill-rule="nonzero"></path>
                    <path d="M117.612537,2.09086957 C117.613783,2.56876175 117.322575,3.00028283 116.874831,3.18401833 C116.427086,3.36775383 115.911089,3.26747626 115.567683,2.92999065 C115.224277,2.59250503 115.121172,2.08435407 115.306493,1.64271959 C115.491814,1.20108511 115.92902,0.913043478 116.414044,0.913043478 C117.071973,0.919606356 117.604175,1.44263293 117.612537,2.09086957 L117.612537,2.09086957 Z M117.353067,5.59086957 L117.353067,16.8182609 L115.542978,16.8182609 L115.542978,5.59086957 L117.353067,5.59086957 Z" fill="#000000" fill-rule="nonzero"></path>
                    <path d="M122.190267,5.59086957 L122.190267,2.66913043 L123.997267,2.24 L123.997267,5.58782609 L126.876111,5.58782609 L126.876111,7.07 L123.997267,7.07 L123.997267,13.9178261 C123.997267,15.0134783 124.411178,15.5278261 125.306956,15.5278261 C125.870019,15.5357978 126.417554,15.345899 126.8514,14.9921739 L127.549489,16.2095652 C126.890862,16.7507297 126.052813,17.033558 125.195756,17.003913 C123.342422,17.003913 122.190267,15.9508696 122.190267,14.2647826 L122.190267,7.07304348 L120.448133,7.07304348 L120.448133,5.59086957 L122.190267,5.59086957 Z" fill="#000000" fill-rule="nonzero"></path>
                    <path d="M138.925867,15.0378261 C137.878733,16.5169565 136.420778,17.0130435 134.601422,17.0130435 C130.984333,17.0130435 128.958022,14.6726087 128.958022,11.2304348 C128.958022,7.78826087 131.070822,5.39 134.144267,5.39 C137.217711,5.39 139,7.50217391 139,10.9778261 L139,11.5652174 L130.820622,11.5652174 C130.863867,13.1752174 131.234533,14.076087 132.019111,14.7852174 C132.606,15.2995652 133.368956,15.5369565 134.545822,15.5369565 C135.809178,15.5369565 136.708044,15.1930435 137.597644,13.9908696 L138.925867,15.0378261 Z M137.162111,10.1195652 C136.921178,7.82173913 136.050111,6.87826087 134.153533,6.87826087 C132.346533,6.87826087 131.2994,7.93130435 130.885489,10.1195652 L137.162111,10.1195652 Z" fill="#000000" fill-rule="nonzero"></path>
                </g>
            </g>
        </g>
    </g>
</svg>
